<svg width="90" height="40" viewBox="0 0 90 40" fill="none" xmlns="http://www.w3.org/2000/svg">
  <rect x="0.5" y="0.5" width="89" height="39" rx="7.5" fill="white" stroke="#E2E8F0"/>
  <path d="M26 27L30.2 13H34.4L30.2 27H26Z" fill="#1A1F71"/>
  <path d="M46 13.4C45.2 13.1 43.9 12.8 42.4 12.8C38.5 12.8 35.8 14.9 35.8 17.8C35.8 20 37.8 21.2 39.3 22C40.9 22.8 41.5 23.3 41.5 24C41.5 25.1 40.2 25.6 39 25.6C37.3 25.6 36.4 25.3 35 24.7L34.4 24.4L33.8 27.8C34.8 28.3 36.8 28.7 38.9 28.7C43 28.7 45.7 26.7 45.8 23.5C45.8 21.7 44.7 20.4 42.3 19.3C40.9 18.6 40.1 18.1 40.1 17.4C40.1 16.7 40.9 16 42.7 16C44.1 16 45.1 16.3 45.8 16.6L46.2 16.8L46.8 13.6L46 13.4Z" fill="#1A1F71"/>
  <path d="M53.3 22.1L55 17.4L56 22.1H53.3ZM58.3 13H55.1C54.1 13 53.3 13.3 52.9 14.2L47.1 27H51.2L52 24.9H56.9L57.3 27H61L58.3 13Z" fill="#1A1F71"/>
  <path d="M23 13L19.1 22.5L18.7 20.5C18 18 15.8 15.3 13.3 14L16.9 27H21L27.1 13H23Z" fill="#1A1F71"/>
  <path d="M15.5 13H9.2L9.1 13.3C14 14.6 17.2 17.8 18.5 21.8L17.2 14.8C17 13.9 16.2 13 15.5 13Z" fill="#F59E0B"/>
</svg>
